# xmcd
#
# Track frame offsets: 
#        182
#        14747
#        32442
#
# Disc length: 673 seconds
#
# Revision: 0
# Processed by: cddbd v1.5.2PL0 Copyright (c) Steve Scherf et al.
# Submitted via: ExactAudioCopy v0.99pb4
#
DISCID=1b029f03
DTITLE=Handsome Boy Modelling School - Rock 'n' Roll - Holy Calamity
DYEAR=1999
DGENRE=Hip-Hop
TTITLE0=Rock 'n' Roll (Could Never Hip Hop Like This) Radio Edit
TTITLE1=Rock 'n' Roll (Could Never Hip Hop Like This) Album Version
TTITLE2=Holy Calamity (Bear Witness II) feat. DJ Shadow and DJ Quest
EXTD=
EXTT0=
EXTT1=
EXTT2=
PLAYORDER=
